# Blender 5.1.0
# www.blender.org
mtllib bort.mtl
o body2.002
v -0.007277 -0.288627 0.119024
v -0.008559 -0.009317 0.119937
v -0.005311 -0.009371 0.556015
v -0.005189 -0.288627 0.557804
v -0.006755 -0.288627 0.119584
v -0.007277 -0.288627 0.119024
v -0.006494 -0.288627 -0.317837
v -0.005189 -0.009417 0.117911
v -0.008559 -0.009317 0.119937
v -0.007277 -0.288627 0.119024
v -0.007277 -0.288627 0.119024
v -0.006755 -0.288627 0.119584
v -0.005189 -0.009417 0.117911
v -0.008827 -0.009432 2.382616
v -0.008251 -0.009417 2.382693
v -0.014355 -0.168841 1.867103
v -0.008021 -0.168841 1.898710
v -0.012243 -0.168841 1.871518
v -0.014355 -0.168841 1.898710
v -0.011184 -0.145748 1.838444
v -0.014355 -0.168841 1.867103
v -0.011184 -0.168841 1.838444
v -0.011184 -0.145748 1.867103
v -0.007061 -0.009294 1.868500
v -0.008320 -0.288627 1.904821
v -0.005971 -0.288627 1.869383
v -0.008827 -0.009432 2.382616
v -0.008827 -0.009432 2.382616
v -0.007691 -0.009317 1.868478
v -0.007061 -0.009294 1.868500
v -0.008251 -0.009417 2.382693
v -0.008021 -0.225007 1.461949
v -0.014432 -0.225007 1.430343
v -0.014432 -0.225007 1.461949
v -0.012290 -0.225007 1.434757
v -0.014432 -0.225007 1.430343
v -0.011223 -0.201914 1.401753
v -0.011222 -0.201914 1.430343
v -0.011223 -0.225007 1.401753
v -0.007691 -0.288627 1.868362
v -0.008820 -0.009317 1.432208
v -0.007691 -0.009317 1.868478
v -0.005971 -0.288627 1.431962
v -0.007691 -0.009317 1.868478
v -0.005188 -0.009417 1.432891
v -0.007061 -0.009294 1.868500
v -0.008820 -0.009317 1.432208
v -0.005280 -0.009386 1.868186
v -0.005971 -0.288627 1.431962
v -0.005188 -0.288627 1.867495
v -0.008820 -0.009317 1.432208
v -0.007061 -0.009294 1.868500
v -0.006754 -0.009332 1.431456
v -0.006493 -0.288627 1.432269
v -0.005380 -0.009348 1.432930
v -0.008820 -0.009317 1.432208
v -0.007061 -0.009294 1.868500
v -0.005442 -0.009325 1.431778
v -0.008820 -0.009317 1.432208
v -0.008022 -0.225007 1.024958
v -0.014432 -0.225007 0.993351
v -0.014432 -0.225007 1.024958
v -0.012290 -0.225007 0.997766
v -0.014432 -0.225007 0.993351
v -0.011223 -0.201914 0.964693
v -0.011223 -0.201914 0.993351
v -0.011223 -0.225007 0.964693
v -0.006493 -0.288627 1.432269
v -0.008958 -0.009332 0.995263
v -0.006754 -0.009332 1.431456
v -0.005972 -0.288627 0.994902
v -0.005189 -0.009417 0.996430
v -0.008958 -0.009332 0.995263
v -0.008820 -0.009317 1.432208
v -0.006754 -0.009332 1.431456
v -0.006754 -0.009332 1.431456
v -0.005972 -0.288627 0.994902
v -0.006493 -0.288627 1.432269
v -0.008958 -0.009332 0.995263
v -0.006754 -0.009332 1.431456
v -0.005442 -0.009325 1.431778
v -0.008820 -0.009317 1.432208
v -0.007100 -0.009309 0.994273
v -0.007100 -0.009309 0.994273
v -0.008820 -0.009317 1.432208
v -0.008820 -0.009317 1.432208
v -0.008958 -0.009332 0.995263
v -0.005565 -0.009271 0.996200
v -0.006754 -0.009332 1.431456
v -0.008022 -0.225007 0.587522
v -0.014432 -0.225007 0.555923
v -0.014432 -0.225007 0.587522
v -0.012290 -0.225007 0.560337
v -0.014432 -0.225007 0.555923
v -0.011223 -0.201914 0.527256
v -0.011223 -0.201914 0.555923
v -0.011223 -0.225007 0.527256
v -0.006494 -0.288627 0.995409
v -0.008958 -0.009332 0.557696
v -0.007100 -0.009309 0.994273
v -0.005972 -0.288627 0.557320
v -0.007100 -0.009309 0.994273
v -0.005972 -0.288627 0.557320
v -0.006494 -0.288627 0.995409
v -0.008958 -0.009332 0.557696
v -0.008321 -0.288627 0.557028
v -0.005189 -0.288627 0.557804
v -0.005972 -0.288627 0.994902
v -0.006494 -0.288627 0.995409
v -0.006494 -0.288627 0.995409
v -0.005972 -0.288627 0.994902
v -0.005380 -0.009348 0.993636
v -0.008958 -0.009332 0.995263
v -0.007100 -0.009309 0.994273
v -0.007369 -0.009294 0.556882
v -0.007369 -0.009294 0.556882
v -0.007100 -0.009309 0.994273
v -0.008958 -0.009332 0.995263
v -0.008958 -0.009332 0.557696
v -0.005565 -0.009271 0.558771
v -0.007100 -0.009309 0.994273
v -0.008022 -0.225007 0.149494
v -0.014432 -0.225007 0.117888
v -0.014432 -0.225007 0.149494
v -0.012290 -0.225007 0.122302
v -0.014432 -0.225007 0.117888
v -0.011223 -0.201914 0.089229
v -0.011223 -0.201914 0.117888
v -0.011223 -0.225007 0.089229
v -0.008321 -0.288627 0.557028
v -0.008559 -0.009317 0.119937
v -0.007369 -0.009294 0.556882
v -0.006755 -0.288627 0.119584
v -0.008958 -0.009332 0.557696
v -0.005189 -0.009417 0.121258
v -0.007369 -0.009294 0.556882
v -0.008559 -0.009317 0.119937
v -0.007277 -0.288627 0.119024
v -0.005189 -0.288627 0.121258
v -0.005972 -0.288627 0.557320
v -0.008321 -0.288627 0.557028
v -0.008321 -0.288627 0.557028
v -0.005972 -0.288627 0.557320
v -0.005311 -0.009371 0.556015
v -0.008958 -0.009332 0.557696
v -0.007369 -0.009294 0.556882
v -0.007692 -0.009317 0.119293
v -0.008559 -0.009317 0.119937
v -0.007369 -0.009294 0.556882
v -0.007692 -0.009317 0.119293
v -0.008958 -0.009332 0.557696
v -0.007369 -0.009294 0.556882
v -0.008559 -0.009317 0.119937
v -0.008022 -0.225007 -0.288241
v -0.014432 -0.225007 -0.319841
v -0.014432 -0.225007 -0.288241
v -0.012290 -0.225007 -0.315426
v -0.014432 -0.225007 -0.319841
v -0.011223 -0.201914 -0.348507
v -0.011223 -0.201914 -0.319841
v -0.011223 -0.225007 -0.348507
v -0.007277 -0.288627 0.119024
v -0.008820 -0.009317 -0.318067
v -0.007692 -0.009317 0.119293
v -0.005972 -0.288627 -0.318405
v -0.005381 -0.009348 0.118932
v -0.005972 -0.288627 -0.318405
v -0.007277 -0.288627 0.119024
v -0.008820 -0.009317 -0.318067
v -0.008559 -0.009317 0.119937
v -0.006755 -0.009332 -0.319449
v -0.008820 -0.009317 -0.318067
v -0.008559 -0.009317 0.119937
v -0.005442 -0.009325 -0.318904
v -0.008559 -0.009317 0.119937
v -0.005381 -0.009348 0.118932
v -0.008820 -0.009317 -0.318067
v -0.008022 -0.225007 -1.019928
v -0.014433 -0.225007 -1.051534
v -0.014433 -0.225007 -1.019928
v -0.012291 -0.225007 -1.047120
v -0.014433 -0.225007 -1.051534
v -0.011224 -0.201914 -1.080193
v -0.011224 -0.201914 -1.051534
v -0.011224 -0.225007 -1.080193
v -0.006494 -0.288627 -0.317837
v -0.008959 -0.009332 -1.049876
v -0.006755 -0.009332 -0.319449
v -0.005972 -0.288627 -1.050137
v -0.008820 -0.009317 -0.318067
v -0.005189 -0.009417 -1.048978
v -0.006755 -0.009332 -0.319449
v -0.008959 -0.009332 -1.049876
v -0.006755 -0.009332 -0.319449
v -0.005972 -0.288627 -1.050137
v -0.006494 -0.288627 -0.317837
v -0.008959 -0.009332 -1.049876
v -0.005972 -0.288627 -0.318405
v -0.008321 -0.288627 -1.050367
v -0.006494 -0.288627 -0.317837
v -0.005189 -0.288627 -1.049753
v -0.005189 -0.009417 -1.048978
v -0.008321 -0.288627 -1.050367
v -0.005189 -0.288627 -1.049753
v -0.008959 -0.009332 -1.049876
v -0.008820 -0.009317 -0.318067
v -0.007101 -0.009309 -1.050667
v -0.007101 -0.009309 -1.050667
v -0.008820 -0.009317 -0.318067
v -0.005565 -0.009271 -1.048909
v -0.008820 -0.009317 -0.318067
v -0.006755 -0.009332 -0.319449
v -0.008959 -0.009332 -1.049876
v -0.005973 -0.151406 -1.781194
v -0.008483 -0.009317 -1.994580
v -0.008322 -0.151260 -1.781386
v -0.005190 -0.009417 -1.994473
v -0.005382 -0.009348 -1.782008
v -0.008322 -0.151260 -1.781386
v -0.008959 -0.009332 -1.780979
v -0.005973 -0.151406 -1.781194
v -0.008023 -0.105596 -1.751168
v -0.014433 -0.105596 -1.782775
v -0.014433 -0.105596 -1.751168
v -0.012291 -0.105596 -1.778361
v -0.014433 -0.105596 -1.782775
v -0.011224 -0.082427 -1.811365
v -0.011224 -0.082427 -1.782775
v -0.011224 -0.105596 -1.811365
v -0.005190 -0.009417 -1.780219
v -0.008322 -0.151260 -1.781386
v -0.005190 -0.151659 -1.780871
v -0.008959 -0.009332 -1.780979
v -0.007101 -0.009309 -1.050667
v -0.007677 -0.009294 -1.781486
v -0.007677 -0.009294 -1.781486
v -0.007101 -0.009309 -1.050667
v -0.008959 -0.009332 -1.049876
v -0.005566 -0.009271 -1.780449
v -0.008959 -0.009332 -1.780979
v -0.007101 -0.009309 -1.050667
v -0.008483 -0.009317 -1.994580
v -0.007677 -0.009294 -1.781486
v -0.008483 -0.009317 -1.994580
v -0.008959 -0.009332 -1.049876
v -0.005381 -0.009348 -1.051250
v -0.008321 -0.288627 -1.050367
v -0.005972 -0.288627 -1.050137
v -0.005566 -0.009271 -1.994696
v -0.008483 -0.009317 -1.994580
v -0.008959 -0.009332 -1.780979
v -0.007677 -0.009294 -1.781486
v -0.008483 -0.009317 -1.994580
v -0.005382 -0.009348 -1.782008
v -0.008959 -0.009332 -1.780979
v -0.005382 -0.009348 -1.782008
v -0.008959 -0.009332 -1.780979
v -0.005566 -0.009271 -1.780449
v -0.008959 -0.009332 -1.780979
v -0.005566 -0.009271 -1.780449
v -0.008959 -0.009332 -1.049876
v -0.005972 -0.288627 -1.050137
v -0.006364 -0.288627 -1.575807
v -0.008321 -0.288627 -1.050367
v -0.005973 -0.151406 -1.781194
v -0.006364 -0.288627 -1.575807
v -0.005189 -0.288627 -1.049753
v -0.007101 -0.009309 -1.050667
v -0.008959 -0.009332 -1.780979
v -0.005190 -0.009417 -1.780219
v -0.008959 -0.009332 -1.049876
v -0.008959 -0.009332 -1.780979
v -0.008959 -0.009332 -1.049876
v -0.005190 -0.009417 -1.780219
v -0.007101 -0.009309 -1.050667
v -0.008959 -0.009332 -1.780979
v -0.007101 -0.009309 -1.050667
v -0.008321 -0.288627 -1.050367
v -0.006364 -0.288627 -1.575807
v -0.005973 -0.151406 -1.781194
v -0.006364 -0.288627 -1.575807
v -0.005190 -0.151659 -1.780871
v -0.008322 -0.151260 -1.781386
v -0.014433 -0.105596 -1.782775
v -0.011224 -0.082427 -1.782775
v -0.008023 -0.105596 -1.782284
v -0.008023 -0.105596 -1.782284
v -0.011224 -0.105596 -1.811365
v -0.014433 -0.105596 -1.782775
v -0.012291 -0.105596 -1.778361
v -0.008023 -0.082427 -1.778361
v -0.011224 -0.082427 -1.782775
v -0.008023 -0.082427 -1.778361
v -0.012291 -0.105596 -1.778361
v -0.008023 -0.105596 -1.782284
v -0.014433 -0.105596 -1.751168
v -0.011224 -0.082427 -1.751168
v -0.008023 -0.105596 -1.751168
v -0.008023 -0.082427 -1.778361
v -0.011224 -0.082427 -1.751168
v -0.011224 -0.082427 -1.782775
v -0.011224 -0.082427 -1.782775
v -0.014433 -0.105596 -1.751168
v -0.012291 -0.105596 -1.778361
v -0.014433 -0.105596 -1.751168
v -0.011224 -0.082427 -1.782775
v -0.011224 -0.082427 -1.751168
v -0.008483 -0.009317 -1.994580
v -0.005190 -0.151659 -1.780871
v -0.005382 -0.009348 -1.782008
v -0.005190 -0.009417 -1.994473
v -0.008959 -0.009332 -1.780979
v -0.008483 -0.009317 -1.994580
v -0.008959 -0.009332 -1.780979
v -0.005190 -0.009417 -1.994473
v -0.007677 -0.009294 -1.781486
v -0.008483 -0.009317 -1.994580
v -0.007677 -0.009294 -1.781486
v -0.008322 -0.151260 -1.781386
v -0.005565 -0.009271 -1.048909
v -0.005565 -0.009271 -1.048909
v -0.008959 -0.009332 -1.049876
v -0.006755 -0.009332 -0.319449
v -0.006755 -0.009332 -0.319449
v -0.005442 -0.009325 -0.318904
v -0.006494 -0.288627 -0.317837
v -0.005442 -0.009325 -0.318904
v -0.005972 -0.288627 -0.318405
v -0.005442 -0.009325 -0.318904
v -0.006494 -0.288627 -0.317837
v -0.008820 -0.009317 -0.318067
v -0.014433 -0.225007 -1.051534
v -0.011224 -0.201914 -1.051534
v -0.008022 -0.225007 -1.051043
v -0.008022 -0.225007 -1.051043
v -0.011224 -0.225007 -1.080193
v -0.014433 -0.225007 -1.051534
v -0.012291 -0.225007 -1.047120
v -0.008022 -0.201914 -1.047120
v -0.011224 -0.201914 -1.051534
v -0.008022 -0.201914 -1.047120
v -0.012291 -0.225007 -1.047120
v -0.008022 -0.225007 -1.051043
v -0.014433 -0.225007 -1.019928
v -0.011224 -0.201914 -1.019928
v -0.008022 -0.225007 -1.019928
v -0.008022 -0.201914 -1.047120
v -0.011224 -0.201914 -1.019928
v -0.011224 -0.201914 -1.051534
v -0.011224 -0.201914 -1.051534
v -0.014433 -0.225007 -1.019928
v -0.012291 -0.225007 -1.047120
v -0.014433 -0.225007 -1.019928
v -0.011224 -0.201914 -1.051534
v -0.011224 -0.201914 -1.019928
v -0.005381 -0.009348 -0.316770
v -0.005381 -0.009348 -0.316770
v -0.008820 -0.009317 -0.318067
v -0.007692 -0.009317 0.119293
v -0.007692 -0.009317 0.119293
v -0.005381 -0.009348 0.118932
v -0.006494 -0.288627 -0.317837
v -0.005381 -0.009348 -0.316770
v -0.008820 -0.009317 -0.318067
v -0.005189 -0.009417 -0.316693
v -0.007692 -0.009317 0.119293
v -0.008820 -0.009317 -0.318067
v -0.007692 -0.009317 0.119293
v -0.005189 -0.009417 -0.316693
v -0.008559 -0.009317 0.119937
v -0.014432 -0.225007 -0.319841
v -0.011223 -0.201914 -0.319841
v -0.008022 -0.225007 -0.319349
v -0.008022 -0.225007 -0.319349
v -0.011223 -0.225007 -0.348507
v -0.014432 -0.225007 -0.319841
v -0.012290 -0.225007 -0.315426
v -0.008022 -0.201914 -0.315426
v -0.011223 -0.201914 -0.319841
v -0.008022 -0.201914 -0.315426
v -0.012290 -0.225007 -0.315426
v -0.008022 -0.225007 -0.319349
v -0.014432 -0.225007 -0.288241
v -0.011223 -0.201914 -0.288241
v -0.008022 -0.225007 -0.288241
v -0.008022 -0.201914 -0.315426
v -0.011223 -0.201914 -0.288241
v -0.011223 -0.201914 -0.319841
v -0.011223 -0.201914 -0.319841
v -0.014432 -0.225007 -0.288241
v -0.012290 -0.225007 -0.315426
v -0.014432 -0.225007 -0.288241
v -0.011223 -0.201914 -0.319841
v -0.011223 -0.201914 -0.288241
v -0.005565 -0.009271 0.121189
v -0.005565 -0.009271 0.121189
v -0.008559 -0.009317 0.119937
v -0.008958 -0.009332 0.557696
v -0.008958 -0.009332 0.557696
v -0.005311 -0.009371 0.556015
v -0.006755 -0.288627 0.119584
v -0.005381 -0.009348 0.118932
v -0.008559 -0.009317 0.119937
v -0.005381 -0.009348 0.118932
v -0.006755 -0.288627 0.119584
v -0.005189 -0.288627 0.121258
v -0.014432 -0.225007 0.117888
v -0.011223 -0.201914 0.117888
v -0.008022 -0.225007 0.118379
v -0.008022 -0.225007 0.118379
v -0.011223 -0.225007 0.089229
v -0.014432 -0.225007 0.117888
v -0.012290 -0.225007 0.122302
v -0.008022 -0.201914 0.122302
v -0.011223 -0.201914 0.117888
v -0.008022 -0.201914 0.122302
v -0.012290 -0.225007 0.122302
v -0.008022 -0.225007 0.118379
v -0.014432 -0.225007 0.149494
v -0.011223 -0.201914 0.149494
v -0.008022 -0.225007 0.149494
v -0.008022 -0.201914 0.122302
v -0.011223 -0.201914 0.149494
v -0.011223 -0.201914 0.117888
v -0.011223 -0.201914 0.117888
v -0.014432 -0.225007 0.149494
v -0.012290 -0.225007 0.122302
v -0.014432 -0.225007 0.149494
v -0.011223 -0.201914 0.117888
v -0.011223 -0.201914 0.149494
v -0.005565 -0.009271 0.558771
v -0.005565 -0.009271 0.558771
v -0.008958 -0.009332 0.557696
v -0.008958 -0.009332 0.995263
v -0.008958 -0.009332 0.995263
v -0.005380 -0.009348 0.993636
v -0.008321 -0.288627 0.557028
v -0.008958 -0.009332 0.557696
v -0.005189 -0.009417 0.558771
v -0.005189 -0.009417 0.558771
v -0.005189 -0.288627 0.557804
v -0.008321 -0.288627 0.557028
v -0.008251 -0.009417 2.382693
v -0.008827 -0.009432 2.382616
v -0.005189 -0.009417 0.558771
v -0.008958 -0.009332 0.557696
v -0.008958 -0.009332 0.995263
v -0.008827 -0.009432 2.382616
v -0.008251 -0.009417 2.382693
v -0.008958 -0.009332 0.995263
v -0.007100 -0.009309 0.994273
v -0.005189 -0.009417 0.558771
v -0.014432 -0.225007 0.555923
v -0.011223 -0.201914 0.555923
v -0.008022 -0.225007 0.556414
v -0.008022 -0.225007 0.556414
v -0.011223 -0.225007 0.527256
v -0.014432 -0.225007 0.555923
v -0.011184 -0.145748 1.867103
v -0.014355 -0.168841 1.898710
v -0.012243 -0.168841 1.871518
v -0.012290 -0.225007 0.560337
v -0.008022 -0.201914 0.560337
v -0.011223 -0.201914 0.555923
v -0.014355 -0.168841 1.898710
v -0.011184 -0.145748 1.867103
v -0.011184 -0.145748 1.898710
v -0.008022 -0.201914 0.560337
v -0.012290 -0.225007 0.560337
v -0.008022 -0.225007 0.556414
v -0.008021 -0.145748 1.871518
v -0.011184 -0.145748 1.898710
v -0.011184 -0.145748 1.867103
v -0.014432 -0.225007 0.587522
v -0.011223 -0.201914 0.587522
v -0.008022 -0.225007 0.587522
v -0.014355 -0.168841 1.898710
v -0.011184 -0.145748 1.898710
v -0.008021 -0.168841 1.898710
v -0.008022 -0.201914 0.560337
v -0.011223 -0.201914 0.587522
v -0.011223 -0.201914 0.555923
v -0.012243 -0.168841 1.871518
v -0.008021 -0.145748 1.871518
v -0.011184 -0.145748 1.867103
v -0.011223 -0.201914 0.555923
v -0.014432 -0.225007 0.587522
v -0.012290 -0.225007 0.560337
v -0.008021 -0.145748 1.871518
v -0.012243 -0.168841 1.871518
v -0.008021 -0.168841 1.867595
v -0.014432 -0.225007 0.587522
v -0.011223 -0.201914 0.555923
v -0.011223 -0.201914 0.587522
v -0.008021 -0.168841 1.867595
v -0.011184 -0.168841 1.838444
v -0.014355 -0.168841 1.867103
v -0.005565 -0.009271 0.996200
v -0.014355 -0.168841 1.867103
v -0.011184 -0.145748 1.867103
v -0.008021 -0.168841 1.867595
v -0.005565 -0.009271 0.996200
v -0.008958 -0.009332 0.995263
v -0.005188 -0.009417 1.869660
v -0.008827 -0.009432 2.382616
v -0.007061 -0.009294 1.868500
v -0.006494 -0.288627 0.995409
v -0.008958 -0.009332 0.995263
v -0.005189 -0.009417 0.996430
v -0.008827 -0.009432 2.382616
v -0.005188 -0.009417 1.869660
v -0.005380 -0.009348 2.382816
v -0.006493 -0.288627 1.432269
v -0.005442 -0.009325 1.431778
v -0.005971 -0.288627 1.431962
v -0.007691 -0.288627 1.868362
v -0.005380 -0.009348 2.382816
v -0.007061 -0.009294 1.868500
v -0.005442 -0.009325 1.431778
v -0.006493 -0.288627 1.432269
v -0.008820 -0.009317 1.432208
v -0.005380 -0.009348 2.382816
v -0.007691 -0.288627 1.868362
v -0.005188 -0.288627 1.904821
v -0.005971 -0.288627 1.431962
v -0.006494 -0.288627 0.995409
v -0.006493 -0.288627 1.432269
v -0.007691 -0.288627 1.868362
v -0.005188 -0.288627 1.904821
v -0.005971 -0.288627 1.869383
v -0.014432 -0.225007 0.993351
v -0.011223 -0.201914 0.993351
v -0.008022 -0.225007 0.993843
v -0.005188 -0.288627 1.904821
v -0.008320 -0.288627 1.904821
v -0.007691 -0.288627 1.868362
v -0.008022 -0.225007 0.993843
v -0.011223 -0.225007 0.964693
v -0.014432 -0.225007 0.993351
v -0.008320 -0.288627 1.904821
v -0.005188 -0.288627 1.904821
v -0.008251 -0.009417 2.382693
v -0.012290 -0.225007 0.997766
v -0.008022 -0.201914 0.997766
v -0.011223 -0.201914 0.993351
v -0.005971 -0.288627 1.869383
v -0.005280 -0.009386 1.868186
v -0.007061 -0.009294 1.868500
v -0.008022 -0.201914 0.997766
v -0.012290 -0.225007 0.997766
v -0.008022 -0.225007 0.993843
v -0.008251 -0.009417 2.382693
v -0.005380 -0.009348 2.382816
v -0.014432 -0.225007 1.024958
v -0.011223 -0.201914 1.024958
v -0.008022 -0.225007 1.024958
v -0.005564 -0.009271 1.869660
v -0.008022 -0.201914 0.997766
v -0.011223 -0.201914 1.024958
v -0.011223 -0.201914 0.993351
v -0.005564 -0.009271 1.869660
v -0.007061 -0.009294 1.868500
v -0.011223 -0.201914 0.993351
v -0.014432 -0.225007 1.024958
v -0.012290 -0.225007 0.997766
v -0.008251 -0.009417 2.382693
v -0.007691 -0.009317 1.868478
v -0.007061 -0.009294 1.868500
v -0.014432 -0.225007 1.024958
v -0.011223 -0.201914 0.993351
v -0.011223 -0.201914 1.024958
v -0.007691 -0.009317 1.868478
v -0.008251 -0.009417 2.382693
v -0.005380 -0.009348 2.382816
v -0.007691 -0.009317 1.868478
v -0.014432 -0.225007 1.461949
v -0.011222 -0.201914 1.430343
v -0.011222 -0.201914 1.461949
v -0.007691 -0.009317 1.868478
v -0.005280 -0.009386 1.868186
v -0.011222 -0.201914 1.430343
v -0.014432 -0.225007 1.461949
v -0.012290 -0.225007 1.434757
v -0.007691 -0.288627 1.868362
v -0.005280 -0.009386 1.868186
v -0.005188 -0.288627 1.867495
v -0.008021 -0.201914 1.434757
v -0.011222 -0.201914 1.461949
v -0.011222 -0.201914 1.430343
v -0.005280 -0.009386 1.868186
v -0.007691 -0.288627 1.868362
v -0.007061 -0.009294 1.868500
v -0.014432 -0.225007 1.461949
v -0.011222 -0.201914 1.461949
v -0.008021 -0.225007 1.461949
v -0.005971 -0.288627 1.869383
v -0.006493 -0.288627 1.432269
v -0.007691 -0.288627 1.868362
v -0.008021 -0.201914 1.434757
v -0.012290 -0.225007 1.434757
v -0.008021 -0.225007 1.430834
v -0.014432 -0.225007 1.430343
v -0.011222 -0.201914 1.430343
v -0.008021 -0.225007 1.430834
v -0.012290 -0.225007 1.434757
v -0.008021 -0.201914 1.434757
v -0.011222 -0.201914 1.430343
v -0.008021 -0.225007 1.430834
v -0.011223 -0.225007 1.401753
v -0.014432 -0.225007 1.430343
vn -0.0000 -1.0000 -0.0000
vn 0.8006 -0.1480 -0.5806
vn -0.0764 0.0106 0.9970
vn -0.6714 0.1241 -0.7306
vn -0.0000 -0.0000 1.0000
vn 0.1734 -0.0009 0.9848
vn -0.0000 1.0000 -0.0000
vn 0.3273 -0.0022 0.9449
vn -0.9964 0.0311 -0.0785
vn -0.9905 0.1377 -0.0000
vn 0.0240 -0.9997 -0.0002
vn -0.9905 0.1376 -0.0000
vn -0.0365 0.9993 0.0002
vn -0.9964 0.0310 -0.0785
vn -0.6715 0.1241 -0.7305
vn -0.1739 -0.0038 -0.9847
vn -0.1744 -0.0038 -0.9847
vn 0.8007 -0.1480 -0.5805
vn -0.0000 0.8634 -0.5045
vn -0.0765 0.0106 0.9970
vn 0.9908 0.1171 -0.0680
vn 0.1263 0.0013 0.9920
vn 1.0000 -0.0023 -0.0033
vn 0.5071 -0.0004 0.8619
vn -0.0244 0.9997 -0.0001
vn -0.2958 -0.0021 0.9552
vn 0.0652 0.9979 0.0005
vn -0.0774 0.0106 0.9969
vn -0.6755 0.1235 -0.7269
vn 0.8041 -0.1470 -0.5761
vn -0.9907 0.1360 -0.0000
vn -0.9965 0.0309 -0.0774
vn 0.0125 -0.9999 0.0003
vn -0.0225 -0.9997 -0.0000
vn -0.2405 -0.0034 0.9706
vn -0.2743 -0.0029 0.9616
vn 0.7303 -0.0052 -0.6831
vn -0.3015 -0.0007 -0.9535
vn -0.0001 -1.0000 -0.0002
vn 0.0002 -1.0000 0.0002
vn 0.0116 -0.9999 0.0001
vn 0.0276 0.9996 -0.0001
vn 0.3531 0.0217 -0.9353
vn 0.3531 0.0201 -0.9354
vn 0.3529 0.0022 -0.9357
vn 0.8005 -0.1480 -0.5807
vn -0.0763 0.0106 0.9970
vn 0.2405 0.0028 0.9706
vn 0.7363 -0.0002 0.6767
vn -1.0000 0.0045 0.0038
vn -0.9970 -0.0778 0.0038
vn -0.0303 0.9995 -0.0009
vn 0.0303 0.9995 0.0001
vn 0.9950 0.0991 -0.0108
vn 0.9999 0.0012 -0.0146
vn 0.9959 0.0909 -0.0019
vn -0.9905 0.1372 -0.0000
vn -0.9964 0.0309 -0.0785
vn -0.6715 0.1237 -0.7306
vn 0.8007 -0.1475 -0.5807
vn -0.0146 -0.8314 -0.5554
vn -0.9997 -0.0210 -0.0159
vn -0.9999 -0.0138 -0.0061
vn -1.0000 -0.0040 -0.0013
vn -1.0000 -0.0024 -0.0000
vn -1.0000 0.0044 0.0025
vn -0.0125 0.9999 -0.0002
vn 0.0225 0.9997 -0.0000
vn 0.9998 0.0210 -0.0025
vn 0.9999 0.0113 -0.0006
vn 1.0000 0.0083 -0.0010
vn 1.0000 0.0037 -0.0004
vn 1.0000 -0.0062 -0.0022
vn 0.0297 -0.9996 0.0002
vn 0.0201 -0.9998 -0.0000
vn 0.0099 -0.8974 -0.4410
vn 0.0001 -0.9299 -0.3677
vn -0.0974 0.0042 0.9952
vn 0.2532 0.0163 0.9673
vn 0.1894 0.0040 0.9819
vn 0.3585 0.0200 0.9333
vn 0.0124 -0.9999 -0.0000
vn 0.0157 -0.9999 -0.0000
vn 0.0180 -0.9998 -0.0000
vn 0.1978 0.0037 -0.9802
vn 0.1819 0.0041 -0.9833
vn 0.1629 0.0045 -0.9866
vn -0.9938 -0.0000 -0.1115
vn -0.9960 0.0690 -0.0559
vn -0.0812 0.0060 0.9967
vn 0.2130 0.0184 0.9769
vn 0.1397 0.0014 0.9902
vn 0.2764 0.0212 0.9608
vn -0.0072 -0.8324 -0.5542
vn -0.0064 -0.8324 -0.5542
vn 0.0084 -1.0000 -0.0000
vn -0.0073 -1.0000 -0.0001
vn 0.2318 0.0022 -0.9728
vn 0.2141 0.0025 -0.9768
vn 0.1924 0.0027 -0.9813
vn 0.9999 0.0107 -0.0030
vn 1.0000 0.0058 -0.0011
vn 1.0000 0.0059 -0.0012
vn 1.0000 0.0009 0.0007
vn 0.0224 0.9997 -0.0000
vn 0.0072 1.0000 -0.0001
vn -0.9999 -0.0107 -0.0007
vn -1.0000 -0.0053 0.0013
vn -1.0000 -0.0057 0.0012
vn -1.0000 -0.0009 0.0030
vn -0.9938 -0.0000 -0.1113
vn -0.9960 0.0692 -0.0558
vn -0.9960 0.0692 -0.0557
vn -0.0024 -1.0000 -0.0000
vn -0.0058 -1.0000 -0.0000
vn -0.0060 -1.0000 -0.0000
vn -0.0098 -1.0000 -0.0001
vn 0.9999 0.0102 -0.0079
vn 1.0000 0.0015 -0.0023
vn 1.0000 0.0018 -0.0025
vn 1.0000 -0.0068 0.0030
vn -0.9999 -0.0102 -0.0030
vn -1.0000 -0.0054 0.0001
vn -1.0000 -0.0060 -0.0003
vn -1.0000 -0.0015 0.0026
vn -0.9938 -0.0000 -0.1112
vn 0.0156 -0.9999 -0.0000
vn 0.0239 -0.9997 -0.0000
vn -0.2256 -0.0011 -0.9742
vn -0.4188 -0.0231 -0.9078
vn -0.3003 -0.0194 -0.9537
vn 0.1233 -0.0049 -0.9924
vn 0.0296 0.9996 0.0001
vn 0.0124 0.9999 -0.0001
vn -0.0241 0.9997 -0.0004
vn -1.0000 -0.0065 -0.0036
vn -1.0000 -0.0009 -0.0000
vn -1.0000 -0.0020 -0.0007
vn -1.0000 0.0034 0.0027
vn -0.9960 0.0693 -0.0557
vn -0.0181 0.9998 -0.0000
vn -0.0124 0.9999 -0.0000
vn -0.0180 0.9998 -0.0000
vn -0.4618 -0.0038 -0.8870
vn -0.4140 -0.0268 -0.9099
vn -0.4408 -0.0236 -0.8973
vn -0.6966 -0.0018 -0.7174
vn 0.9999 0.0107 -0.0043
vn 1.0000 0.0062 -0.0014
vn 1.0000 0.0076 -0.0023
vn 1.0000 0.0022 0.0012
vn -0.9999 -0.0107 -0.0012
vn -1.0000 -0.0065 0.0015
vn -1.0000 -0.0076 0.0008
vn -1.0000 -0.0022 0.0043
vn 0.0073 1.0000 0.0002
vn -0.0179 0.9998 -0.0000
vn 0.9999 0.0107 -0.0051
vn 1.0000 0.0054 -0.0016
vn 1.0000 0.0055 -0.0018
vn 1.0000 0.0009 0.0012
vn -0.0072 -1.0000 0.0002
vn -0.0224 -0.9997 -0.0000
vn -0.0226 -0.9997 -0.0000
vn -1.0000 -0.0058 0.0019
vn -1.0000 -0.0054 0.0022
vn -1.0000 -0.0009 0.0051
vn -0.9960 0.0691 -0.0558
vn -0.9910 -0.1338 0.0040
vn -0.0024 -1.0000 0.0001
vn -0.9910 -0.1341 0.0040
vn 0.2055 0.0129 -0.9786
vn 0.2030 0.0113 -0.9791
vn 0.2055 0.0015 -0.9787
vn 0.9999 0.0102 -0.0081
vn 1.0000 0.0055 -0.0051
vn 1.0000 0.0051 -0.0049
vn 1.0000 0.0003 -0.0018
vn 0.0275 0.9996 -0.0001
vn 0.0182 0.9998 -0.0001
vn 0.0180 0.9998 -0.0001
vn -0.0365 0.9993 -0.0004
vn -0.9999 -0.0102 -0.0039
vn -1.0000 -0.0052 -0.0007
vn -1.0000 -0.0048 -0.0005
vn -1.0000 -0.0000 0.0026
vn -0.9960 0.0693 -0.0558
vn -0.9960 0.0692 -0.0559
vn -1.0000 0.0041 -0.0034
vn -1.0000 0.0035 -0.0078
vn -1.0000 0.0035 -0.0075
vn -0.9978 -0.0041 -0.0661
vn -0.9961 0.0684 -0.0551
vn -0.9961 0.0683 -0.0552
vn -0.9939 -0.0000 -0.1100
vn 0.7314 -0.0082 -0.6819
vn -0.5152 0.0004 -0.8570
vn -1.0000 -0.0031 0.0065
vn -1.0000 -0.0004 0.0048
vn -1.0000 -0.0019 0.0057
vn -1.0000 -0.0046 0.0074
vt 0.796400 0.773600
vt 0.790600 0.773600
vt 0.797600 0.778500
vt 0.797600 0.773600
vt 0.796400 0.778500
vt 0.889800 0.760000
vt 0.797200 0.760000
vt 0.803400 0.773600
vt 0.803400 0.778500
vt 0.889800 0.819500
vt 0.999500 0.819500
vt 0.890200 0.819500
vt 0.710400 0.778500
vt 0.704600 0.778500
vt 0.710400 0.773600
vt 0.704600 0.773600
vt 0.890200 0.760000
vt 0.999400 0.819500
vt 0.897700 0.760000
vt 0.703300 0.773600
vt 0.697600 0.773600
vt 0.703300 0.778500
vt 0.796800 0.760000
vt 0.704300 0.760000
vt 0.961900 0.885600
vt 0.959500 0.885600
vt 0.994000 0.928700
vt 0.796800 0.819500
vt 0.959500 0.928700
vt 0.704300 0.819500
vt 0.889400 0.785500
vt 0.889400 0.790500
vt 0.883600 0.785500
vt 0.617300 0.778500
vt 0.611500 0.778500
vt 0.617300 0.773600
vt 0.890600 0.785500
vt 0.890600 0.790500
vt 0.611500 0.773600
vt 0.896400 0.785500
vt 0.896400 0.790500
vt 0.610200 0.773600
vt 0.604400 0.773600
vt 0.610200 0.778500
vt 0.611100 0.819500
vt 0.703700 0.819500
vt 0.611100 0.760000
vt 0.524000 0.778500
vt 0.518200 0.778500
vt 0.524000 0.773600
vt 0.518200 0.773600
vt 0.517000 0.773600
vt 0.511200 0.773600
vt 0.517000 0.778500
vt 0.518000 0.760000
vt 0.518000 0.819500
vt 0.430800 0.778500
vt 0.425000 0.778500
vt 0.430800 0.773600
vt 0.425000 0.773600
vt 0.423800 0.773600
vt 0.418000 0.773600
vt 0.423800 0.778500
vt 0.517300 0.819500
vt 0.424800 0.819500
vt 0.424800 0.760000
vt 0.275100 0.778500
vt 0.269300 0.778500
vt 0.275100 0.773600
vt 0.269300 0.773600
vt 0.268000 0.773600
vt 0.262200 0.773600
vt 0.268000 0.778500
vt 0.424000 0.819500
vt 0.424000 0.760000
vt 0.112800 0.789400
vt 0.112800 0.819500
vt 0.067600 0.819500
vt 0.714200 0.928700
vt 0.714200 0.906900
vt 0.699900 0.928700
vt 0.119400 0.803900
vt 0.113600 0.803900
vt 0.119400 0.799000
vt 0.113600 0.799000
vt 0.112400 0.799000
vt 0.106600 0.799000
vt 0.112400 0.803900
vt 0.113200 0.789100
vt 0.156700 0.760000
vt 0.113200 0.819500
vt 0.268400 0.760000
vt 0.268400 0.819500
vt 0.714300 0.928700
vt 0.763300 0.928700
vt 0.714300 0.906700
vt 0.763300 0.885600
vt 0.728000 0.885600
vt 0.112900 0.819500
vt 0.067500 0.819500
vt 0.106600 0.803900
vt 0.268900 0.819500
vt 0.424100 0.819500
vt 0.268900 0.760000
vt 0.763400 0.928700
vt 0.812400 0.928700
vt 0.763400 0.885600
vt 0.812400 0.885600
vt 0.262200 0.778500
vt 0.424700 0.819500
vt 0.517400 0.819500
vt 0.812600 0.928700
vt 0.841800 0.928700
vt 0.812600 0.885600
vt 0.841800 0.885600
vt 0.517300 0.760000
vt 0.418000 0.778500
vt 0.610600 0.819500
vt 0.610500 0.760000
vt 0.610500 0.819500
vt 0.511200 0.778500
vt 0.703800 0.819500
vt 0.703700 0.760000
vt 0.871400 0.928700
vt 0.900600 0.928700
vt 0.871400 0.885600
vt 0.900600 0.885600
vt 0.604400 0.778500
vt 0.796900 0.819500
vt 0.900800 0.928700
vt 0.930000 0.928700
vt 0.900800 0.885600
vt 0.930000 0.885600
vt 0.697600 0.778500
vt 0.797200 0.819500
vt 0.889900 0.819500
vt 0.930100 0.928700
vt 0.959300 0.928700
vt 0.930100 0.885600
vt 0.959300 0.885600
vt 0.790600 0.778500
vt 0.883600 0.790500
vt 0.842000 0.885600
vt 0.871200 0.885600
vt 0.871200 0.928700
vt 0.842000 0.928700
s 1
usemtl skirt
f 610/1/1 609/2/1 608/1/1
f 607/3/2 606/3/2 605/4/2
f 604/1/3 603/5/3 602/1/3
f 601/4/4 600/4/4 599/3/4
f 598/6/1 597/7/1 596/6/1
f 595/8/5 594/9/5 593/8/5
f 592/10/6 591/6/6 590/10/6
f 589/3/7 588/9/7 587/3/7
f 586/6/8 585/10/8 584/6/8
f 583/4/9 582/8/9 581/3/9
f 578/9/10 577/3/10 576/8/10
f 574/11/11 573/11/11 572/12/11
f 571/13/12 570/14/12 569/15/12
f 568/12/13 567/12/13 566/11/13
f 565/16/14 564/15/14 563/14/14
f 560/14/7 559/13/7 558/14/7
f 556/15/5 555/13/5 554/15/5
f 551/16/15 550/16/15 549/14/15
f 548/12/16 547/12/17 546/17/16
f 545/14/18 544/14/18 543/16/18
f 542/18/19 541/19/19 540/19/19
f 539/20/1 538/21/1 537/20/1
f 536/17/7 535/19/7 534/19/7
f 533/20/20 532/22/20 531/20/20
f 530/17/1 529/19/1 528/17/1
f 527/23/1 526/24/1 525/23/1
f 524/25/21 523/26/21 522/27/21
f 521/28/22 520/23/22 519/28/22
f 518/29/23 517/27/23 516/26/23
f 515/23/24 514/28/24 513/23/24
f 512/18/25 511/12/25 510/18/25
f 509/30/26 508/30/26 507/24/26
f 506/12/27 505/18/27 504/12/27
f 501/31/28 500/32/28 499/31/28
f 497/31/1 496/33/1 495/31/1
f 494/34/12 493/35/12 492/36/12
f 491/37/29 490/37/29 489/38/29
f 488/39/14 487/36/14 486/35/14
f 485/38/30 484/38/30 483/37/30
f 482/35/7 481/34/7 480/35/7
f 479/40/5 478/41/5 477/40/5
f 476/36/5 475/34/5 474/36/5
f 473/38/7 472/41/7 471/38/7
f 470/39/15 469/39/15 468/35/15
f 467/41/31 466/38/31 465/40/31
f 464/35/2 463/35/2 462/39/2
f 461/37/32 460/40/32 459/38/32
f 458/42/1 457/43/1 456/42/1
f 455/42/3 454/44/3 453/42/3
f 452/45/33 451/46/33 450/46/33
f 447/46/34 446/45/34 445/45/34
f 442/47/35 441/47/35 440/45/35
f 439/45/36 438/45/36 437/47/36
f 430/48/12 429/49/12 428/50/12
f 427/51/14 426/50/14 425/49/14
f 424/49/7 423/48/7 422/49/7
f 421/50/5 420/48/5 419/50/5
f 418/51/15 417/51/15 416/49/15
f 415/49/2 414/49/2 413/51/2
f 412/52/1 411/53/1 410/52/1
f 409/52/3 408/54/3 407/52/3
f 406/55/37 405/55/37 404/56/37
f 403/56/38 402/56/38 401/55/38
f 394/57/12 393/58/12 392/59/12
f 391/60/14 390/59/14 389/58/14
f 388/58/7 387/57/7 386/58/7
f 385/59/5 384/57/5 383/59/5
f 382/60/15 381/60/15 380/58/15
f 379/58/18 378/58/18 377/60/18
f 376/61/1 375/62/1 374/61/1
f 373/61/20 372/63/20 371/61/20
f 370/64/39 369/65/40 368/64/41
f 367/65/42 366/64/42 365/65/42
f 364/65/43 363/65/44 362/66/45
f 355/67/12 354/68/12 353/69/12
f 352/70/14 351/69/14 350/68/14
f 349/68/7 348/67/7 347/68/7
f 346/69/5 345/67/5 344/69/5
f 343/70/4 342/70/4 341/68/4
f 340/68/46 339/68/46 338/70/46
f 337/71/1 336/72/1 335/71/1
f 334/71/47 333/73/47 332/71/47
f 331/74/48 330/75/48 329/74/48
f 328/75/49 327/74/49 326/75/49
f 319/76/50 318/77/51 317/78/51
f 316/77/52 315/78/52 314/77/52
f 313/78/53 312/77/53 311/78/53
f 310/79/54 309/80/55 308/81/56
f 307/82/57 306/83/57 305/84/57
f 304/85/58 303/84/58 302/83/58
f 301/83/7 300/82/7 299/83/7
f 298/84/5 297/82/5 296/84/5
f 295/85/59 294/85/59 293/83/59
f 292/83/60 291/83/60 290/85/60
f 289/86/1 288/87/1 287/86/1
f 286/86/3 285/88/3 284/86/3
f 283/89/61 282/89/61 281/90/61
f 280/89/62 279/90/63 276/91/64
f 279/90/63 278/92/65 276/91/64
f 278/92/65 277/93/66 276/91/64
f 275/93/67 274/91/67 273/93/67
f 272/91/68 271/93/68 270/91/68
f 269/94/69 268/95/70 265/96/71
f 268/95/70 267/97/72 265/96/71
f 267/97/72 266/98/73 265/96/71
f 264/92/1 263/90/1 262/92/1
f 252/99/74 251/99/75 249/100/76
f 250/100/77 249/100/76 251/99/75
f 248/92/78 246/93/79 247/92/80
f 245/93/81 247/92/80 246/93/79
f 241/93/82 238/93/83 239/91/83
f 240/91/84 239/91/83 238/93/83
f 233/91/85 230/91/86 231/89/86
f 232/89/87 231/89/86 230/91/86
f 229/87/88 226/86/89 227/101/89
f 228/88/57 227/101/89 226/86/89
f 225/85/1 222/84/1 223/85/1
f 224/84/1 223/85/1 222/84/1
f 221/76/90 218/77/91 219/76/92
f 220/77/93 219/76/92 218/77/91
f 217/78/94 214/76/95 215/78/94
f 216/76/95 215/78/94 214/76/95
f 213/102/84 210/102/96 211/103/96
f 212/103/97 211/103/96 210/102/96
f 205/102/98 202/102/99 203/104/99
f 204/104/100 203/104/99 202/102/99
f 201/104/1 198/75/1 199/104/1
f 200/75/1 199/104/1 198/75/1
f 197/105/101 194/106/102 195/107/103
f 196/108/104 195/107/103 194/106/102
f 193/102/68 190/74/105 191/102/68
f 192/74/106 191/102/68 190/74/105
f 189/104/107 186/75/108 187/102/109
f 188/74/110 187/102/109 186/75/108
f 185/72/111 182/71/112 183/109/113
f 184/73/12 183/109/113 182/71/112
f 181/70/1 178/69/1 179/70/1
f 180/69/1 179/70/1 178/69/1
f 177/110/114 174/110/115 175/111/116
f 176/111/117 175/111/116 174/110/115
f 169/112/118 166/113/119 167/114/120
f 168/115/121 167/114/120 166/113/119
f 165/66/122 162/116/123 163/65/124
f 164/64/125 163/65/124 162/116/123
f 161/62/126 158/61/113 159/117/113
f 160/63/12 159/117/113 158/61/113
f 157/60/1 154/59/1 155/60/1
f 156/59/1 155/60/1 154/59/1
f 153/56/1 150/56/41 151/118/127
f 152/118/128 151/118/127 150/56/41
f 142/119/129 145/120/130 144/120/131
f 144/120/131 143/119/132 142/119/129
f 138/55/7 141/119/7 140/119/7
f 140/119/7 139/55/7 138/55/7
f 137/56/133 134/120/134 135/56/134
f 136/120/135 135/56/134 134/120/134
f 133/55/136 130/119/137 131/56/138
f 132/120/139 131/56/138 130/119/137
f 129/53/111 126/52/140 127/121/112
f 128/54/12 127/121/112 126/52/140
f 125/51/1 122/50/1 123/51/1
f 124/50/1 123/51/1 122/50/1
f 118/122/141 121/122/142 120/45/143
f 120/45/143 119/45/143 118/122/141
f 110/123/144 113/46/145 112/46/146
f 112/46/146 111/123/147 110/123/144
f 106/47/7 109/123/7 108/123/7
f 108/123/7 107/47/7 106/47/7
f 105/124/148 102/125/149 103/126/150
f 104/127/151 103/126/150 102/125/149
f 101/47/152 98/123/153 99/45/154
f 100/46/155 99/45/154 98/123/153
f 97/43/126 94/42/112 95/128/113
f 96/44/12 95/128/113 94/42/112
f 93/39/1 90/36/1 91/39/1
f 92/36/1 91/39/1 90/36/1
f 86/129/141 89/129/156 88/30/157
f 88/30/157 87/30/143 86/129/141
f 79/130/158 76/131/159 77/132/160
f 78/133/161 77/132/160 76/131/159
f 72/30/34 75/28/162 74/28/163
f 74/28/163 73/30/164 72/30/34
f 71/24/152 68/23/165 69/30/166
f 70/28/167 69/30/166 68/23/165
f 67/21/111 64/20/140 65/134/168
f 66/22/12 65/134/168 64/20/140
f 63/16/1 60/15/1 61/16/1
f 62/15/1 61/16/1 60/15/1
f 59/135/169 58/135/170 57/136/171
f 56/135/172 55/135/173 54/7/174
f 51/137/175 48/138/176 49/139/177
f 50/140/178 49/139/177 48/138/176
f 47/135/179 44/10/180 45/135/181
f 46/10/182 45/135/181 44/10/180
f 43/7/183 40/6/184 41/135/185
f 42/10/186 41/135/185 40/6/184
f 39/2/88 36/1/187 37/141/188
f 38/5/10 37/141/188 36/1/187
f 35/4/1 32/8/1 33/4/1
f 34/8/1 33/4/1 32/8/1
f 27/18/189 24/12/190 25/19/191
f 26/17/192 25/19/191 24/12/190
f 23/32/31 20/142/193 21/31/194
f 22/33/195 21/31/194 20/142/193
f 19/40/1 16/37/1 17/40/1
f 18/37/1 17/40/1 16/37/1
f 13/64/196 12/116/196 11/116/196
f 10/116/197 9/64/197 8/64/197
f 7/66/7 6/116/7 5/116/7
f 1/143/198 4/144/199 3/145/200
f 3/145/200 2/146/201 1/143/198
l 443 444
l 360 361
l 258 259
l 234 235
l 561 562
l 399 400
l 502 503
l 52 53
l 208 209
l 172 173
l 146 147
l 116 117
l 82 83
l 30 31
l 357 358
l 255 256
l 236 237
l 552 553
l 435 436
l 432 433
l 253 254
l 243 244
l 579 580
l 448 449
l 324 325
l 396 397
l 321 322
l 206 207
l 170 171
l 148 149
l 114 115
l 84 85
l 80 81
l 28 29
