# Blender 5.0.1
# www.blender.org
mtllib m102glass.mtl
o Body.smd
v 40.182766 18.303429 8.459903
v 40.182766 6.720615 8.459886
v 40.182777 18.303404 25.780537
v 40.182777 6.720591 25.780519
v -39.524654 18.303432 8.459948
v -39.524658 6.720627 8.459918
v -39.524662 18.303392 25.780567
v -39.524670 6.720591 25.780542
v -40.182770 18.303432 8.459948
v -40.182770 6.720627 8.459918
v -40.182781 6.720591 25.780542
v 39.524651 18.303429 8.459903
v 39.524670 18.303404 25.780537
v 39.524651 6.720615 8.459886
v 39.524670 6.720591 25.780519
v 1.387424 24.440973 31.786076
v 1.387429 7.959612 33.228004
v 31.045010 24.440981 31.786076
v 37.550072 7.959623 33.228004
v 35.396301 21.644533 32.030735
v -37.550064 7.959623 33.228027
v -1.387414 24.440973 31.786076
v 31.045010 24.440981 32.292831
v 35.396301 21.644533 32.537483
v 37.550072 7.959623 33.734760
v 1.387429 7.959612 33.734760
v 1.387425 24.440973 32.292831
v -1.387414 24.440973 32.292831
v -1.387418 7.959612 33.734760
v -31.045010 24.440981 32.292850
v -37.550064 7.959623 33.734779
v -35.396286 21.644533 32.537510
v -33.993427 23.946077 32.336147
vn -0.0000 0.0872 0.9962
vn -0.0000 -0.0872 -0.9962
vn -1.0000 -0.0000 -0.0000
vn 1.0000 -0.0000 -0.0000
vt 0.959836 0.602877
vt 0.917371 0.628656
vt 0.968970 0.548678
vt 0.664871 0.668243
vt 0.664871 0.003546
vt 0.968969 0.003547
vt 0.668245 0.677178
vt 0.668244 0.981275
vt 0.123121 0.677181
vt 0.003557 0.981276
vt 0.043143 0.728777
vt 0.676554 0.992233
vt 0.676552 0.673868
vt 0.889458 0.673868
vt 0.889458 0.992234
s 1
usemtl Glass
f 33/1/1 32/2/1 30/3/1
f 32/2/1 31/4/1 30/3/1
f 29/5/1 30/3/1 31/4/1
f 30/3/1 29/5/1 28/6/1
f 27/7/1 26/8/1 23/9/1
f 26/8/1 25/10/1 23/9/1
f 25/10/1 24/11/1 23/9/1
f 20/11/2 19/10/2 18/9/2
f 17/8/2 18/9/2 19/10/2
f 18/9/2 17/8/2 16/7/2
f 14/12/3 15/13/3 13/14/3
f 14/12/3 13/14/3 12/15/3
f 8/13/4 6/12/4 7/14/4
f 7/14/4 6/12/4 5/15/4
f 4/13/4 2/12/4 3/14/4
f 3/14/4 2/12/4 1/15/4
l 9 10
l 10 11
